<svg width="668" height="711" viewBox="0 0 668 711" fill="none" xmlns="http://www.w3.org/2000/svg">
<path fill-rule="evenodd" clip-rule="evenodd" d="M343.653 67.9962C337.567 66.2235 331.1 66.2235 325.01 67.9962C323.26 68.5065 320.18 69.7832 313.63 74.7422C306.743 79.9575 298.31 87.4215 285.17 99.1018L110.515 254.35C89.103 273.383 83.033 279.123 78.813 285.47C74.7537 291.576 71.7297 298.31 69.8627 305.4C67.9217 312.773 67.665 321.12 67.665 349.77V516.47C67.665 545.503 67.692 565.24 68.958 580.486C70.191 595.336 72.425 602.916 75.171 608.2C81.496 620.376 91.424 630.306 103.6 636.63C108.886 639.376 116.466 641.61 131.314 642.843C146.56 644.11 166.298 644.136 195.332 644.136H200.998V544.136C200.998 470.5 260.694 410.803 334.333 410.803C407.97 410.803 467.667 470.5 467.667 544.136V644.136H473.333C502.367 644.136 522.103 644.11 537.35 642.843C552.197 641.61 559.777 639.376 565.063 636.63C577.24 630.306 587.167 620.376 593.493 608.2C596.24 602.916 598.473 595.336 599.707 580.486C600.97 565.24 601 545.503 601 516.47V349.77C601 321.12 600.743 312.773 598.8 305.4C596.933 298.31 593.91 291.576 589.85 285.47C585.63 279.123 579.56 273.383 558.15 254.35L383.493 99.1018C370.353 87.4215 361.92 79.9575 355.033 74.7422C348.483 69.7832 345.403 68.5065 343.653 67.9962ZM306.37 3.9885C324.633 -1.3295 344.03 -1.3295 362.293 3.9885C374.963 7.67883 385.47 14.1682 395.273 21.5908C404.507 28.5815 414.907 37.8245 426.88 48.4682L602.44 204.523C603.387 205.363 604.317 206.191 605.24 207.009C622.63 222.45 635.763 234.115 645.37 248.562C653.487 260.775 659.537 274.243 663.27 288.426C667.687 305.203 667.68 322.77 667.667 346.023C667.667 347.256 667.667 348.503 667.667 349.77V517.87C667.667 545.153 667.667 567.673 666.143 586.006C664.563 605.05 661.167 622.546 652.653 638.933C640.003 663.286 620.147 683.14 595.797 695.79C579.407 704.303 561.913 707.7 542.867 709.28C524.533 710.803 502.017 710.803 474.73 710.803H461.167C460.907 710.803 460.647 710.803 460.38 710.803C456.343 710.803 451.523 710.806 447.277 710.453C442.353 710.046 435.307 708.996 427.95 705.173C418.817 700.43 411.37 692.983 406.627 683.853C402.807 676.493 401.757 669.446 401.347 664.523C400.993 660.28 400.997 655.456 400.997 651.42L401 544.136C401 507.316 371.15 477.47 334.333 477.47C297.513 477.47 267.665 507.316 267.665 544.136L267.665 651.42C267.667 655.456 267.67 660.28 267.316 664.523C266.907 669.446 265.857 676.493 262.036 683.853C257.292 692.983 249.846 700.43 240.714 705.173C233.357 708.996 226.31 710.046 221.387 710.453C217.141 710.806 212.32 710.803 208.282 710.803C208.018 710.803 207.756 710.803 207.498 710.803H193.933C166.648 710.803 144.13 710.803 125.796 709.28C106.751 707.7 89.2564 704.303 72.8684 695.79C48.516 683.14 28.66 663.286 16.01 638.933C7.49737 622.546 4.1017 605.05 2.52003 586.006C0.9977 567.673 0.998037 545.153 0.99837 517.87V349.77C0.99837 348.503 0.997702 347.256 0.997369 346.023C0.985035 322.77 0.976033 305.203 5.39337 288.426C9.1277 274.243 15.176 260.775 23.2947 248.562C32.8987 234.115 46.035 222.45 63.424 207.01C64.3454 206.191 65.2784 205.363 66.2237 204.523L241.785 48.4685C253.758 37.8245 264.156 28.5815 273.39 21.5908C283.193 14.1682 293.7 7.67883 306.37 3.9885Z" fill="white"/>
</svg>
