<svg width="600" height="468" viewBox="0 0 600 468" fill="none" xmlns="http://www.w3.org/2000/svg">
<path fill-rule="evenodd" clip-rule="evenodd" d="M0 34.0001C0 15.5907 14.924 0.666748 33.3333 0.666748H566.667C585.077 0.666748 600 15.5907 600 34.0001C600 52.4094 585.077 67.3334 566.667 67.3334H33.3333C14.924 67.3334 0 52.4094 0 34.0001ZM0 234C0 215.59 14.924 200.667 33.3333 200.667H566.667C585.077 200.667 600 215.59 600 234C600 252.41 585.077 267.333 566.667 267.333H33.3333C14.924 267.333 0 252.41 0 234ZM0 434C0 415.59 14.924 400.667 33.3333 400.667H566.667C585.077 400.667 600 415.59 600 434C600 452.41 585.077 467.333 566.667 467.333H33.3333C14.924 467.333 0 452.41 0 434Z" fill="white"/>
</svg>
