<svg width="534" height="634" viewBox="0 0 534 634" fill="none" xmlns="http://www.w3.org/2000/svg">
<path fill-rule="evenodd" clip-rule="evenodd" d="M267.333 66.8031C212.103 66.8031 167.333 111.575 167.333 166.803C167.333 222.031 212.103 266.803 267.333 266.803C322.563 266.803 367.333 222.031 367.333 166.803C367.333 111.575 322.563 66.8031 267.333 66.8031ZM100.667 166.803C100.667 74.7558 175.286 0.136475 267.333 0.136475C359.38 0.136475 434 74.7558 434 166.803C434 258.85 359.38 333.47 267.333 333.47C175.286 333.47 100.667 258.85 100.667 166.803ZM115.87 457.683C80.7281 473.29 67.3334 492.996 67.3334 516.803C67.3334 524.256 68.6587 528.476 70.5761 531.536C72.4944 534.596 77.0714 539.78 89.4064 545.36C115.771 557.286 167.87 566.803 267.333 566.803C366.797 566.803 418.897 557.286 445.26 545.36C457.597 539.78 462.173 534.596 464.09 531.536C466.007 528.476 467.333 524.256 467.333 516.803C467.333 492.996 453.94 473.29 418.797 457.683C382.713 441.663 329.74 433.47 267.333 433.47C204.927 433.47 151.952 441.663 115.87 457.683ZM88.8141 396.756C137.181 375.276 200.873 366.803 267.333 366.803C333.793 366.803 397.487 375.276 445.853 396.756C495.16 418.65 534 457.276 534 516.803C534 532.36 531.16 550.063 520.577 566.946C509.993 583.823 493.737 596.6 472.74 606.1C432.437 624.333 367.87 633.47 267.333 633.47C166.797 633.47 102.229 624.333 61.9271 606.1C40.9287 596.6 24.6724 583.823 14.0907 566.946C3.50808 550.063 0.666748 532.36 0.666748 516.803C0.666748 457.276 39.5054 418.65 88.8141 396.756Z" fill="white"/>
</svg>
